<?xml version="1.0" encoding="utf-8"?>
<!-- Generator: Adobe Illustrator 19.2.1, SVG Export Plug-In . SVG Version: 6.00 Build 0)  -->
<svg version="1.1" id="Layer_1" xmlns="http://www.w3.org/2000/svg" xmlns:xlink="http://www.w3.org/1999/xlink" x="0px" y="0px"
	 viewBox="0 0 247 145.2" enable-background="new 0 0 247 145.2" xml:space="preserve">
<g>
	<path fill="none" d="M100.5,70h-1.7v8.7h1.7c4.8,0,5.8-2.2,5.8-4.6C106.3,71.9,105,70,100.5,70z"/>
	<path fill="none" d="M63.3,35.9c2.1-0.9,0.8-3.7,0.3-5.1c-0.7-1.7-1.7-4.4-3.8-3.6c-2.1,0.8-0.7,3.7-0.2,5.1
		C60.2,33.8,61.2,36.7,63.3,35.9z"/>
	<path fill="none" d="M41.5,73.3c0-2.1-1.4-3.5-3.7-3.5h-3.6v6.8h4.1C40.5,76.5,41.5,74.9,41.5,73.3z"/>
	<path fill="none" d="M131.7,105.2c-4.6,0-4.3,6.5-4.3,9.7c0,3.2-0.3,9.6,4.3,9.6c4.6,0,4.4-6.4,4.4-9.6
		C136.1,111.2,136.4,105.2,131.7,105.2z"/>
	<path fill="none" d="M38.9,80.3h-4.8v7.9h4.8c2,0,3.4-1.9,3.5-4C42.5,82.1,40.9,80.3,38.9,80.3z"/>
	<polygon fill="none" points="61.5,82.8 69.8,82.8 65.6,73.2 	"/>
	<path fill="none" d="M217,16.5c-1.8,2-6.2,0.4-5.5-2.8c-6,0.5-7.6-6.8-3.7-9.2h-7.8h-1.2H24.5c4,2.5,2.3,9.8-3.7,9.2
		c0.6,3.2-3.7,4.9-5.5,2.8c2.9-5.4-6.9-8.8-12-4.3v107.6v4.8v9.5c5,4.5,14.9,1.1,12-4.3c1.8-2,6.2-0.4,5.5,2.8
		c6-0.5,7.6,6.8,3.7,9.2h174.3h3.1h5.9c-4-2.5-2.3-9.8,3.7-9.2c-0.6-3.2,3.7-4.9,5.5-2.8c-2.9,5.4,6.9,8.8,12,4.3v-12.7v-1.6V12.2
		C223.9,7.7,214.1,11.2,217,16.5z M180.4,28.6l5.1,2.6c-0.4,0.1-0.9,0.4-1.2,1l-1.3,2.5l2.6,1.3l1.2-2.5c0.3-0.6,0.3-1.2,0.1-1.7
		l5.1,2.6c-0.4,0.1-0.9,0.4-1.2,1l-4.4,8.9c-0.2,0.3-0.2,0.6,0,1.4l-5.1-2.5c0.6-0.2,1-0.4,1.2-0.9l2.3-4.6l-2.5-1.3l-2.3,4.7
		c-0.2,0.3-0.2,0.6,0,1.4l-5.1-2.5c0.6-0.2,1-0.4,1.2-0.9l4.3-8.7C180.6,29.6,180.5,29,180.4,28.6z M165,24.5c-0.6-0.2-1,0-1.3,0.2
		l1.2-2.2l11.4,4.3l-0.5,2.5c-0.1-0.4-0.2-0.7-0.8-1l-3-1.1l-3.4,8.9c-0.1,0.3-0.1,0.6,0.2,1.4l-5.3-2c0.6-0.3,0.9-0.5,1.1-1
		l3.4-8.8L165,24.5z M146,29.1l2.6-9.4c0.2-0.7-0.3-1.7-0.3-1.7l8.2,2.2c2.4,0.7,3.9,2.8,3.3,5c-0.4,1.4-1.4,2.2-2.6,2.7l0.5,4.5
		c0.1,0.5,0.1,0.8,0.6,1.4l-5.3-1.5c0.4-0.4,0.5-0.7,0.4-1l-0.4-3.6l-2-0.6l-0.9,3.1c-0.1,0.3-0.1,0.7,0.3,1.3l-5.5-1.5
		C145.6,29.8,145.9,29.5,146,29.1z M130.5,21.2c0.4-2,1.4-3.6,3-4.6c1.3-0.9,3.1-1.1,4.8-0.8c1.9,0.4,3.5,1.3,4.4,2.8
		c0.9,1.4,1.1,3.2,0.8,4.9c-0.3,1.9-1.3,3.7-2.8,4.6c-1.4,0.9-3.3,1.1-5,0.8c-1.9-0.4-3.4-1.3-4.4-2.9
		C130.4,24.7,130.1,23,130.5,21.2z M115.7,14.8c-0.3,0.6-0.3,0.9-0.2,1.2l1.8,5.2l2.1-5.1c0.2-0.5,0-0.9-0.2-1.1l3.5,0.1
		c-0.3,0.6-0.3,0.9-0.2,1.2l1.8,5.2l2.1-5.1c0.1-0.5,0-0.8-0.2-1.1l3.5,0.1c-0.5,0.3-0.9,0.7-1.2,1.2l-4.4,10.5
		c-0.1,0.4,0,0.6,0.1,0.8l-2.7-0.1c0.3-0.2,0.3-0.5,0.2-0.7l-2.1-6l-2.4,5.8c-0.1,0.4,0,0.6,0.1,0.8l-2.8-0.1
		c0.3-0.2,0.2-0.4,0.2-0.7l-3.8-10.8c-0.2-0.5-0.3-0.8-0.9-1.3L115.7,14.8z M121.2,38.2c-3.1,2.5-4.9,10.6-4.9,10.7
		c-0.3,1.6-0.3,1.5-0.6,0c0-0.1-1.8-8.2-4.9-10.7c-1.6-1.3,1.9-3.3,5.2-3.2C119.3,34.9,122.8,37,121.2,38.2z M97.6,15.8l0.7,2.4
		c-0.2-0.3-0.6-0.5-1.2-0.4L94,18.3l1.5,9.4c0.1,0.3,0.2,0.6,0.8,1.1l-5.6,0.9c0.4-0.5,0.5-0.8,0.5-1.4L89.7,19l-3.1,0.5
		c-0.6,0.1-0.9,0.5-1,0.8l-0.1-2.5L97.6,15.8z M77.2,19.8c2.4-0.7,4.8,0.4,5.4,2.6c0.4,1.4,0,2.7-0.9,3.6l2.8,3.6
		c0.3,0.4,0.5,0.7,1.3,0.9L80.5,32c0.1-0.6,0-0.9-0.2-1.1L78.1,28l-2,0.6l0.9,3.1c0.1,0.3,0.3,0.6,0.9,1l-5.5,1.6
		c0.3-0.6,0.5-0.9,0.3-1.5l-2.7-9.4c-0.2-0.7-1.1-1.3-1.1-1.3L77.2,19.8z M55.6,28.5c0.7-1.4,2-2.6,3.6-3.2c1.8-0.7,3.6-0.8,5.3,0
		c1.5,0.7,2.6,2.1,3.3,3.7c0.7,1.8,0.8,3.8,0.1,5.4c-0.7,1.5-2.1,2.7-3.8,3.3c-1.8,0.7-3.6,0.7-5.2-0.1c-1.5-0.7-2.6-2-3.3-3.7
		C54.7,32.1,54.7,30.2,55.6,28.5z M54.5,54c0.8-0.2,1.8-0.1,2.8-0.1l53.1,0c-2.8-2.2-7.3-5.4-11.1-4.9c-1.7,0.2-0.1-4.3,1.5-5
		c2.9-1.2,7.7,3.6,11.1,9.9h1.5c-0.1-0.3-0.3-0.6-0.4-0.8c-1.8-3.9-5.2-8.6-8.7-10c-1.7-0.7,1.1-4.1,2.9-4.2
		c3.3-0.1,6.7,7.7,7.2,15.1h3.1c0.6-7.5,4-15.4,7.4-15.3c1.8,0.1,4.7,3.7,3,4.3c-3.6,1.5-7.1,6.3-8.9,10.4c-0.1,0.2-0.2,0.4-0.3,0.6
		h1.5c3.5-6.4,8.3-11.3,11.3-10.1c1.6,0.7,3.3,5.3,1.5,5.1c-3.8-0.5-8.4,2.7-11.3,5l52.9,0c1,0,2-0.1,2.8,0.1
		c0.8,0.2,1.5,0.5,2.1,0.9c0.6,0.4,1.2,0.7,1.8,1.2H50.7c0.6-0.4,1.2-0.8,1.8-1.2C53,54.6,53.7,54.2,54.5,54z M49.8,29.5l1.5,2
		c-0.3-0.2-0.7-0.2-1.3,0L45.5,34l1.6,3l3-1.7c0.4-0.3,0.6-0.7,0.6-1l1.5,2.7c-0.3-0.2-0.6-0.2-1.1,0l-3,1.7l2,3.7
		c0.1,0.3,0.4,0.5,1.1,0.8l-5,2.7c0.2-0.6,0.2-1,0-1.5l-4.7-8.5c-0.4-0.7-0.9-0.9-1.4-1L49.8,29.5z M51.2,85.3
		c-0.9,5-4.9,6.7-11.3,6.7h-16c1-0.9,1.4-1.6,1.4-2.7V69.2c0-1.5-0.7-2.5-1.4-3.2h16.5c4.7,0,8.9,1.7,9.4,6.2
		c0.2,2.2-0.6,4.4-2.2,5.6L47,78.3l0.7,0.2C50.2,79.4,51.7,82.5,51.2,85.3z M69,128.4c-3.2,0-5.8-0.7-8.8-1.4
		c-1.1-0.2-1.9,0.1-2.4,0.5l-0.5-8c1.9,2.9,7.2,5.1,11.7,5.1c2.8,0.1,6.6,0.1,6.3-2.9c-0.2-2.2-3.5-2.4-7.9-2.9
		c-7-0.7-10.9-4.3-10.3-9.4c0.7-5.4,5.9-7.6,12.8-7.9c2.4-0.2,6.4,0.3,9,0.9c1.1,0.3,2,0,2.5-0.4v7.4c-1.5-2.3-6.1-4.5-10.1-4.3
		c-2.3,0.1-4.9,0.8-5,2.5c-0.2,2.9,2.7,2.3,7.7,3c4.9,0.7,9.7,2.3,9.8,7.8C83.9,125.7,76.4,128.3,69,128.4z M72.4,92
		c0.6-1.2,0.5-1.8,0.2-2.5l-1.3-3.1H59.9l-1.3,3.1c-0.3,1.2,0,1.9,0.4,2.4H52c0.8-0.5,1.6-1.3,2.2-2.4l9-20.9
		c0.2-0.4,0.7-1.9-0.8-2.7h11.1c-0.5,0.6-0.8,1.6-0.2,3.1l8.8,20.3c0.4,1,0.7,1.7,2.1,2.6H72.4z M114.2,127.9h-11.7
		c0.9-0.9,1.4-1.6,1.4-2.7v-10.6h-5.9v10.8c0,0.7,0.2,1.3,1.2,2.5H87.4c1-0.9,1.4-1.6,1.4-2.7V105c0-1.5-0.7-2.5-1.4-3.2h11.9
		c-0.7,0.6-1.4,1.6-1.4,3v5.8h5.9V105c0-1.5-0.7-2.5-1.4-3.2h11.9c-0.7,0.6-1.4,1.6-1.4,3v20.4C112.9,126,113.1,126.6,114.2,127.9z
		 M105.2,92c0.6-1.1,0.6-1.7,0.3-2.3l-2.7-6.9h-4.2v6.6c0,0.7,0.2,1.3,1.2,2.5H88c1-0.9,1.4-1.6,1.4-2.7V69.2c0-1.5-1.4-3.2-1.4-3.2
		h17.6c5.1,0,9.2,3.4,9.2,8.2c0,2.9-1.5,5.2-3.8,6.7l3.4,8.6c0.4,1,0.6,1.6,1.9,2.4H105.2z M141.3,125.3c-2.5,2.3-6.2,3.4-9.8,3.4
		c-4,0-7.4-1.4-10-4.2c-2.3-2.5-3.4-5.9-3.3-9.6c0-4.1,1.5-7.8,4.4-10.4c2.4-2.2,5.8-3.3,9.4-3.3c4,0,7.5,1.3,10,4.1
		c2.2,2.5,3.4,6,3.4,9.6C145.3,118.8,143.9,122.7,141.3,125.3z M147.6,85.3c-0.8,5-4.9,6.7-11.3,6.7h-16c1-0.9,1.4-1.6,1.4-2.7V69.2
		c0-1.5-0.7-2.5-1.4-3.2h16.5c4.7,0,8.9,1.7,9.4,6.2c0.2,2.2-0.5,4.4-2.2,5.6l-0.6,0.4l0.7,0.2C146.6,79.4,148.1,82.5,147.6,85.3z
		 M165.9,119.4c-1.1,0-4,0.2-6.1,0.1v5.8c0,0.7,0.2,1.3,1.2,2.5h-11.7c1-0.9,1.4-1.6,1.4-2.7V105c0-1.5-0.7-2.5-1.4-3.2
		c3.6,0,17,0,17,0c5,0,8.8,3.4,8.8,8.4C175.2,115.3,170.5,119,165.9,119.4z M175.2,92h-23.8c1-0.9,1.4-1.6,1.4-2.7V69.2
		c0-1.5-0.7-2.5-1.4-3.2H175l0.6,5c-0.3-0.5-0.9-1.1-2.2-1.2h-11.4v5.4h6.1c1.2-0.2,1.7-0.6,2.1-1.2v6.3c-0.3-0.5-0.9-1-2-1.2h-6.2
		v9h11.7c1.3-0.2,1.8-0.7,2.2-1.2L175.2,92z M197.1,92c0.6-1.1,0.5-1.7,0.3-2.3l-2.7-6.9h-4.2v6.6c0,0.7,0.2,1.3,1.2,2.5h-11.7
		c1-0.9,1.4-1.6,1.4-2.7V69.2c0-1.5-1.4-3.2-1.4-3.2h17.6c5.1,0,9.2,3.4,9.2,8.2c0,2.9-1.5,5.2-3.8,6.7l3.4,8.6
		c0.4,1,0.6,1.6,1.9,2.4H197.1z"/>
	<path fill="none" d="M161.4,105.9h-1.5v9.5h1.5c3.6,0,5.3-2.5,5.1-5.1C166.3,107.9,164.7,105.9,161.4,105.9z"/>
	<path fill="none" d="M138,73.3c0-2.1-1.4-3.5-3.7-3.5h-3.6v6.8h4.1C137,76.5,138,74.9,138,73.3z"/>
	<path fill="none" d="M135.4,80.3h-4.8v7.9h4.8c2,0,3.4-1.9,3.5-4C139,82.1,137.4,80.3,135.4,80.3z"/>
	<path fill="none" d="M192.4,70h-1.7v8.7h1.7c4.8,0,5.8-2.2,5.8-4.6C198.2,71.9,196.9,70,192.4,70z"/>
	<path fill="none" d="M76.5,26.4c2.2-0.6,2.4-1.8,2.1-3c-0.3-1-1.1-1.7-3.2-1.1l-0.8,0.2l1.2,4L76.5,26.4z"/>
	<path fill="none" d="M34.4,3.7C40.2,6,40.6,1.1,38.6,0H21.3v5C24.1,2.5,28.9,1.5,34.4,3.7z"/>
	<path fill="none" d="M155.8,24c0.3-1-0.1-2.1-2.2-2.6l-0.8-0.2l-1.1,4l0.8,0.2C154.8,26.1,155.5,25.2,155.8,24z"/>
	<path fill="none" d="M34.4,133.8c-5.5,2.2-10.3,1.2-13.1-1.3v5h17.3C40.6,136.4,40.2,131.5,34.4,133.8z"/>
	<path fill="none" d="M136.2,27c2.2,0.4,2.6-2.7,2.9-4.2c0.3-1.8,1-4.6-1.3-5c-2.2-0.4-2.6,2.7-2.9,4.3
		C134.6,23.6,133.9,26.6,136.2,27z"/>
	<path fill="none" d="M233.8,133.8c-5.8-2.3-6.2,2.6-4.2,3.7H247v-5C244.1,135,239.3,136,233.8,133.8z"/>
	<path fill="none" d="M233.8,3.7c5.5-2.2,10.3-1.2,13.1,1.3V0h-17.3C227.6,1.1,228.1,6,233.8,3.7z"/>
	<path fill="#FFFFFF" d="M199.9,1.2h-1.2H3.3H0v3.3v115.4v4.8v17.3v3.3h3.3h195.5h3.1h27.1h3.3v-3.3v-20.5v-1.6V4.4V1.2h-3.3H199.9z
		 M3.3,4.4h17.3c2,1.1,1.6,6-4.2,3.7C10.9,6,6.1,6.9,3.3,9.4V4.4z M20.6,141.9H3.3v-5c2.8,2.5,7.6,3.4,13.1,1.3
		C22.2,136,22.6,140.8,20.6,141.9z M228.9,141.9h-17.3c-2-1.1-1.6-6,4.2-3.7c5.5,2.2,10.3,1.2,13.1-1.3V141.9z M228.9,119.8v1.6
		v12.7c-5,4.5-14.9,1.1-12-4.3c-1.8-2-6.2-0.4-5.5,2.8c-6-0.5-7.6,6.8-3.7,9.2h-5.9h-3.1H24.5c4-2.5,2.3-9.8-3.7-9.2
		c0.6-3.2-3.7-4.9-5.5-2.8c2.9,5.4-6.9,8.8-12,4.3v-9.5v-4.8V12.2c5-4.5,14.9-1.1,12,4.3c1.8,2,6.2,0.4,5.5-2.8
		c6,0.5,7.6-6.8,3.7-9.2h174.3h1.2h7.8c-4,2.5-2.3,9.8,3.7,9.2c-0.6,3.2,3.7,4.9,5.5,2.8c-2.9-5.4,6.9-8.8,12-4.3V119.8z M228.9,9.4
		c-2.8-2.5-7.6-3.4-13.1-1.3c-5.8,2.3-6.2-2.6-4.2-3.7h17.3V9.4z"/>
	<path fill="#FFFFFF" d="M41.5,35.8l4.7,8.5c0.3,0.5,0.2,0.9,0,1.5l5-2.7c-0.7-0.3-1-0.5-1.1-0.8l-2-3.7l3-1.7
		c0.5-0.2,0.9-0.1,1.1,0l-1.5-2.7c0,0.3-0.1,0.7-0.6,1l-3,1.7l-1.6-3l4.5-2.5c0.6-0.2,1-0.2,1.3,0l-1.5-2l-9.6,5.3
		C40.7,34.9,41.2,35.2,41.5,35.8z"/>
	<path fill="#FFFFFF" d="M58.7,37.7c1.6,0.8,3.4,0.8,5.2,0.1c1.7-0.7,3.1-1.8,3.8-3.3c0.8-1.6,0.6-3.6-0.1-5.4
		c-0.7-1.6-1.8-3-3.3-3.7c-1.7-0.8-3.5-0.7-5.3,0c-1.6,0.6-2.9,1.8-3.6,3.2c-0.8,1.7-0.8,3.6-0.1,5.5C56.1,35.7,57.2,37,58.7,37.7z
		 M59.8,27.2c2.1-0.9,3.1,1.8,3.8,3.6c0.6,1.4,1.8,4.2-0.3,5.1c-2.1,0.9-3.1-2.1-3.7-3.5C59,30.9,57.7,28.1,59.8,27.2z"/>
	<path fill="#FFFFFF" d="M70.1,23.4l2.7,9.4c0.2,0.5,0,0.9-0.3,1.5l5.5-1.6c-0.7-0.4-0.8-0.7-0.9-1l-0.9-3.1l2-0.6l2.2,2.8
		c0.2,0.3,0.3,0.5,0.2,1.1l5.3-1.6c-0.8-0.2-0.9-0.5-1.3-0.9L81.7,26c0.9-0.9,1.3-2.2,0.9-3.6c-0.6-2.2-3-3.3-5.4-2.6L69,22.1
		C69,22.1,69.9,22.7,70.1,23.4z M75.4,22.3c2.1-0.6,2.9,0.1,3.2,1.1c0.4,1.1,0.2,2.3-2.1,3l-0.8,0.2l-1.2-4L75.4,22.3z"/>
	<path fill="#FFFFFF" d="M86.6,19.5l3.1-0.5l1.5,9.3c0.1,0.5-0.1,0.9-0.5,1.4l5.6-0.9c-0.6-0.5-0.7-0.8-0.8-1.1L94,18.3l3.1-0.5
		c0.6-0.1,1,0.2,1.2,0.4l-0.7-2.4l-12.1,2l0.1,2.5C85.7,20,85.9,19.6,86.6,19.5z"/>
	<path fill="#FFFFFF" d="M110.9,15.9l3.8,10.8c0,0.2,0.1,0.5-0.2,0.7l2.8,0.1c-0.2-0.2-0.2-0.4-0.1-0.8l2.4-5.8l2.1,6
		c0,0.2,0,0.6-0.2,0.7l2.7,0.1c-0.1-0.2-0.2-0.4-0.1-0.8l4.4-10.5c0.3-0.5,0.7-0.9,1.2-1.2l-3.5-0.1c0.2,0.3,0.3,0.6,0.2,1.1
		l-2.1,5.1l-1.8-5.2c-0.1-0.3-0.1-0.6,0.2-1.2l-3.5-0.1c0.2,0.3,0.4,0.6,0.2,1.1l-2.1,5.1l-1.8-5.2c-0.1-0.3-0.1-0.6,0.2-1.2
		l-5.7-0.2C110.6,15.1,110.7,15.4,110.9,15.9z"/>
	<path fill="#FFFFFF" d="M135.7,29c1.7,0.3,3.6,0.1,5-0.8c1.5-1,2.5-2.7,2.8-4.6c0.3-1.7,0.1-3.5-0.8-4.9c-1-1.5-2.5-2.5-4.4-2.8
		c-1.7-0.3-3.4-0.1-4.8,0.8c-1.6,1-2.6,2.6-3,4.6c-0.4,1.8-0.1,3.5,0.7,4.9C132.3,27.7,133.8,28.6,135.7,29z M134.9,22.1
		c0.3-1.6,0.7-4.7,2.9-4.3c2.3,0.4,1.6,3.2,1.3,5c-0.3,1.5-0.7,4.6-2.9,4.2C133.9,26.6,134.6,23.6,134.9,22.1z"/>
	<path fill="#FFFFFF" d="M150.2,30.3l0.9-3.1l2,0.6l0.4,3.6c0,0.3,0,0.6-0.4,1l5.3,1.5c-0.5-0.6-0.5-0.9-0.6-1.4l-0.5-4.5
		c1.2-0.4,2.2-1.2,2.6-2.7c0.6-2.3-0.9-4.4-3.3-5l-8.2-2.2c0,0,0.4,1,0.3,1.7l-2.6,9.4c-0.2,0.5-0.5,0.8-1,1.1l5.5,1.5
		C150.2,30.9,150.2,30.6,150.2,30.3z M152.9,21.2l0.8,0.2c2.1,0.6,2.5,1.6,2.2,2.6c-0.3,1.1-1,2.1-3.3,1.4l-0.8-0.2L152.9,21.2z"/>
	<path fill="#F1F2F2" d="M163.5,35.4l5.3,2c-0.3-0.7-0.3-1-0.2-1.4l3.4-8.9l3,1.1c0.6,0.2,0.7,0.6,0.8,1l0.5-2.5l-11.4-4.3l-1.2,2.2
		c0.3-0.2,0.7-0.4,1.3-0.2l2.9,1.1l-3.4,8.8C164.4,35,164.1,35.2,163.5,35.4z"/>
	<path fill="#FFFFFF" d="M175.9,39c-0.3,0.5-0.6,0.7-1.2,0.9l5.1,2.5c-0.2-0.8-0.2-1.1,0-1.4l2.3-4.7l2.5,1.3l-2.3,4.6
		c-0.2,0.5-0.6,0.7-1.2,0.9l5.1,2.5c-0.2-0.8-0.2-1.1,0-1.4l4.4-8.9c0.3-0.6,0.8-0.9,1.2-1l-5.1-2.6c0.2,0.4,0.2,1-0.1,1.7l-1.2,2.5
		l-2.6-1.3l1.3-2.5c0.3-0.6,0.8-0.9,1.2-1l-5.1-2.6c0.2,0.4,0.3,1-0.1,1.7L175.9,39z"/>
	<path fill="#FFFFFF" d="M181.2,56.1c-0.6-0.4-1.2-0.8-1.8-1.2c-0.6-0.4-1.3-0.7-2.1-0.9c-0.8-0.2-1.8-0.1-2.8-0.1l-52.9,0
		c2.8-2.3,7.5-5.4,11.3-5c1.7,0.2,0.1-4.4-1.5-5.1c-3-1.2-7.8,3.7-11.3,10.1h-1.5c0.1-0.2,0.2-0.4,0.3-0.6c1.8-4.1,5.3-8.9,8.9-10.4
		c1.7-0.7-1.2-4.3-3-4.3c-3.4-0.1-6.8,7.8-7.4,15.3h-3.1c-0.5-7.3-3.9-15.1-7.2-15.1c-1.7,0.1-4.6,3.5-2.9,4.2
		c3.5,1.4,6.9,6.1,8.7,10c0.1,0.3,0.2,0.6,0.4,0.8h-1.5c-3.4-6.2-8.2-11.1-11.1-9.9c-1.6,0.7-3.2,5.1-1.5,5
		c3.8-0.5,8.4,2.7,11.1,4.9l-53.1,0c-1,0-2-0.1-2.8,0.1c-0.8,0.2-1.5,0.5-2.1,0.9c-0.6,0.4-1.2,0.7-1.8,1.2H181.2z"/>
	<path fill="#FFFFFF" d="M116.1,35c-3.4-0.1-6.8,1.9-5.2,3.2c3.1,2.5,4.9,10.6,4.9,10.7c0.3,1.5,0.3,1.6,0.6,0
		c0-0.1,1.8-8.2,4.9-10.7C122.8,37,119.3,34.9,116.1,35z"/>
	<path fill="#FFFFFF" d="M47.7,78.5L47,78.3l0.6-0.4c1.6-1.1,2.4-3.4,2.2-5.6C49.3,67.8,45,66,40.3,66H23.8c0.8,0.6,1.4,1.6,1.4,3.2
		v20.1c0,1.1-0.4,1.7-1.4,2.7h16c6.4,0,10.4-1.7,11.3-6.7C51.7,82.5,50.2,79.4,47.7,78.5z M34.1,69.8h3.6c2.3,0,3.7,1.4,3.7,3.5
		c0,1.6-1,3.2-3.2,3.2h-4.1V69.8z M38.9,88.3h-4.8v-7.9h4.8c1.9,0,3.5,1.7,3.5,3.9C42.4,86.4,40.9,88.3,38.9,88.3z"/>
	<path fill="#FFFFFF" d="M82.2,89.4l-8.8-20.3c-0.6-1.5-0.3-2.5,0.2-3.1H62.5c1.5,0.8,1,2.3,0.8,2.7l-9,20.9
		c-0.6,1.1-1.4,1.8-2.2,2.4H59c-0.4-0.5-0.7-1.2-0.4-2.4l1.3-3.1h11.4l1.3,3.1c0.3,0.7,0.4,1.3-0.2,2.5h11.9
		C82.9,91.1,82.6,90.5,82.2,89.4z M61.5,82.8l4.1-9.6l4.1,9.6H61.5z"/>
	<path fill="#FFFFFF" d="M114.5,89.6l-3.4-8.6c2.2-1.4,3.8-3.7,3.8-6.7c0-4.8-4.1-8.2-9.2-8.2H88c0,0,1.4,1.7,1.4,3.2v20.1
		c0,1.1-0.4,1.8-1.4,2.7h11.7c-1-1.2-1.2-1.8-1.2-2.5v-6.6h4.2l2.7,6.9c0.3,0.6,0.3,1.2-0.3,2.3h11.3
		C115.2,91.2,114.9,90.6,114.5,89.6z M100.5,78.7h-1.7V70h1.7c4.5,0,5.7,1.9,5.8,4C106.4,76.4,105.4,78.7,100.5,78.7z"/>
	<path fill="#FFFFFF" d="M144.2,78.5l-0.7-0.2l0.6-0.4c1.6-1.1,2.4-3.4,2.2-5.6c-0.5-4.5-4.7-6.2-9.4-6.2h-16.5
		c0.7,0.6,1.4,1.6,1.4,3.2v20.1c0,1.1-0.5,1.7-1.4,2.7h16c6.4,0,10.4-1.7,11.3-6.7C148.1,82.5,146.6,79.4,144.2,78.5z M130.6,69.8
		h3.6c2.3,0,3.7,1.4,3.7,3.5c0.1,1.6-1,3.2-3.2,3.2h-4.1V69.8z M135.4,88.3h-4.8v-7.9h4.8c1.9,0,3.5,1.7,3.5,3.9
		C138.9,86.4,137.4,88.3,135.4,88.3z"/>
	<path fill="#FFFFFF" d="M173.7,88.2h-11.7v-9h6.2c1.1,0.1,1.6,0.6,2,1.2V74c-0.3,0.6-0.9,1-2.1,1.2h-6.1v-5.4h11.4
		c1.3,0.1,1.9,0.6,2.2,1.2l-0.6-5h-23.5c0.7,0.6,1.4,1.6,1.4,3.2v20.1c0,1.1-0.4,1.7-1.4,2.7h23.8l0.6-5.1
		C175.5,87.5,175,88,173.7,88.2z"/>
	<path fill="#FFFFFF" d="M206.4,89.6l-3.4-8.6c2.2-1.4,3.8-3.7,3.8-6.7c0-4.8-4.1-8.2-9.2-8.2h-17.6c0,0,1.4,1.7,1.4,3.2v20.1
		c0,1.1-0.4,1.8-1.4,2.7h11.7c-1-1.2-1.2-1.8-1.2-2.5v-6.6h4.2l2.7,6.9c0.2,0.6,0.3,1.2-0.3,2.3h11.3
		C207.1,91.2,206.8,90.6,206.4,89.6z M192.4,78.7h-1.7V70h1.7c4.5,0,5.7,1.9,5.8,4C198.3,76.4,197.3,78.7,192.4,78.7z"/>
	<path fill="#FFFFFF" d="M73.9,110.3c-5-0.6-7.9-0.1-7.7-3c0.1-1.7,2.7-2.4,5-2.5c4-0.2,8.6,2,10.1,4.3v-7.4
		c-0.5,0.4-1.4,0.7-2.5,0.4c-2.5-0.5-6.5-1-9-0.9c-6.9,0.3-12.1,2.5-12.8,7.9c-0.6,5,3.3,8.7,10.3,9.4c4.4,0.4,7.7,0.7,7.9,2.9
		c0.3,2.9-3.5,2.9-6.3,2.9c-4.5,0-9.8-2.2-11.7-5.1l0.5,8c0.5-0.4,1.3-0.7,2.4-0.5c2.9,0.7,5.5,1.4,8.8,1.4
		c7.4-0.1,14.9-2.7,14.7-10.2C83.6,112.6,78.8,111,73.9,110.3z"/>
	<path fill="#FFFFFF" d="M114.3,101.8h-11.9c0.7,0.6,1.4,1.6,1.4,3.2v5.6h-5.9v-5.8c0-1.4,0.7-2.4,1.4-3H87.4
		c0.8,0.6,1.4,1.6,1.4,3.2v20.1c0,1.1-0.4,1.7-1.4,2.7h11.7c-1-1.2-1.2-1.8-1.2-2.5v-10.8h5.9v10.6c0,1.1-0.5,1.7-1.4,2.7h11.7
		c-1-1.2-1.2-1.8-1.2-2.5v-20.4C112.9,103.5,113.6,102.4,114.3,101.8z"/>
	<path fill="#FFFFFF" d="M131.9,101.1c-3.5,0-6.9,1.1-9.4,3.3c-2.8,2.5-4.3,6.2-4.4,10.4c0,3.7,1,7.1,3.3,9.6c2.5,2.7,6,4.2,10,4.2
		c3.6,0,7.3-1,9.8-3.4c2.7-2.5,4-6.4,4-10.4c0-3.6-1.1-7.1-3.4-9.6C139.4,102.4,135.9,101.1,131.9,101.1z M131.7,124.5
		c-4.6,0-4.3-6.4-4.3-9.6c0-3.2-0.3-9.7,4.3-9.7c4.7,0,4.4,5.9,4.4,9.7C136.1,118.1,136.3,124.5,131.7,124.5z"/>
	<path fill="#FFFFFF" d="M166.3,101.8c0,0-13.3,0-17,0c0.7,0.6,1.4,1.7,1.4,3.2v20.1c0,1.1-0.4,1.8-1.4,2.7h11.7
		c-1-1.2-1.2-1.8-1.2-2.5v-5.8c2,0.2,5-0.1,6.1-0.1c4.6-0.4,9.2-4.1,9.2-9.1C175.2,105.3,171.3,101.8,166.3,101.8z M161.4,115.4
		h-1.5v-9.5h1.5c3.3,0,4.9,2,5.1,4.3C166.6,112.8,164.9,115.4,161.4,115.4z"/>
</g>
</svg>
